<svg width="90" height="90" fill="none" xmlns="http://www.w3.org/2000/svg"><g clip-path="url(#clip0_134_93)"><mask id="mask0_134_93" style="mask-type:luminance" maskUnits="userSpaceOnUse" x="49" y="80" width="27" height="10"><path d="M49.333 80H76v9.338H49.333V80z" fill="#fff"/></mask><g mask="url(#mask0_134_93)"><path d="M49.911 90h25.76v-9.661h-25.76V90z" fill="#000"/></g><mask id="mask1_134_93" style="mask-type:luminance" maskUnits="userSpaceOnUse" x="54" y="29" width="36" height="49"><path d="M54.667 29.333h34.671v48H54.667v-48z" fill="#fff"/></mask><g mask="url(#mask1_134_93)"><path d="M89.776 33.38a3.235 3.235 0 00-2.563-3.146c-1.65-.343-3.364.813-3.843 2.584l-4.427 16.505c1.057 2.906-.157 6.25-3.016 7.896l-9.016 5.198a1.613 1.613 0 01-2.198-.594 1.608 1.608 0 01.589-2.198l9.02-5.198c1.579-.906 2.235-2.864 1.47-4.364-.568-1.1-1.641-1.76-2.875-1.76a3.22 3.22 0 00-1.61.426l-11 6.453a11.31 11.31 0 00-5.568 9.719V77.12h16.1v-1.87a8.035 8.035 0 012.812-6.11l7.51-6.437a4.78 4.78 0 001.521-2.422l6.99-26.067a3.26 3.26 0 00.104-.834z" fill="#000"/></g><path d="M2.948 30.234a3.235 3.235 0 00-2.458 3.98l6.99 26.078c.25.942.775 1.776 1.52 2.411l7.51 6.438a8.03 8.03 0 012.808 6.109v1.87h16.104V64.9a11.31 11.31 0 00-5.568-9.719l-11.01-6.458a3.202 3.202 0 00-1.6-.422 3.19 3.19 0 00-2.88 1.76c-.76 1.5-.109 3.459 1.474 4.365l9.016 5.198a1.606 1.606 0 01.594 2.198 1.607 1.607 0 01-2.198.594l-9.016-5.198c-2.859-1.646-4.073-4.99-3.015-7.901l-4.427-16.5c-.48-1.771-2.204-2.922-3.844-2.584z" fill="#000"/><mask id="mask2_134_93" style="mask-type:luminance" maskUnits="userSpaceOnUse" x="13" y="80" width="29" height="10"><path d="M13.333 80h28v9.338h-28V80z" fill="#fff"/></mask><g mask="url(#mask2_134_93)"><path d="M40.25 80.339H14.49V90h25.76v-9.661z" fill="#000"/></g><path d="M62.453 6.365a1.61 1.61 0 011.948 1.583v10.568c0 12.51-6.86 23.942-17.901 29.833l-.667.349a1.59 1.59 0 01-.755.187c-.255 0-.52-.062-.75-.187l-.667-.349a33.756 33.756 0 01-17.9-29.833V7.938c0-.485.218-.943.598-1.25a1.63 1.63 0 011.35-.323c5.327 1.161 11.036.432 15.9-2.006l.75-.37a1.622 1.622 0 011.438 0l.755.376a24.286 24.286 0 0015.901 2zm-14.458-4.88L45.073.025 42.167 1.48A20.872 20.872 0 0122.542 1v17.516a36.942 36.942 0 0019.604 32.672l2.932 1.567 2.938-1.568a36.946 36.946 0 0019.604-32.67V1a20.873 20.873 0 01-19.625.484z" fill="#F35858"/><path d="M56.464 15.828c.63.625.63 1.646 0 2.276L43 31.568a1.618 1.618 0 01-1.14.474c-.412 0-.824-.162-1.136-.474l-6.167-6.162a1.616 1.616 0 010-2.276c.63-.63 1.651-.63 2.276 0l5.026 5.021 12.328-12.323c.63-.63 1.646-.63 2.277 0zM45.073 7.23l-.026.01c-4.922 2.47-10.6 3.391-16.068 2.626v8.65a30.536 30.536 0 0016.1 26.938 30.53 30.53 0 0016.103-26.937V9.865A27.556 27.556 0 0145.12 7.25l-.047-.02z" fill="#F35858"/></g><defs><clipPath id="clip0_134_93"><path fill="#fff" d="M0 0h90v90H0z"/></clipPath></defs></svg>