<svg width="90" height="90" fill="none" xmlns="http://www.w3.org/2000/svg"><g clip-path="url(#clip0_134_141)"><mask id="mask0_134_141" style="mask-type:luminance" maskUnits="userSpaceOnUse" x="0" y="0" width="90" height="52"><path d="M0 0h89.338v52H0V0z" fill="#fff"/></mask><g mask="url(#mask0_134_141)"><path d="M88.026 40.708c-.614-.812-1.25-1.656-1.349-2.307-.11-.698.24-1.719.578-2.708.5-1.433 1.058-3.052.552-4.6-.51-1.577-1.932-2.572-3.187-3.447-.844-.589-1.714-1.198-2.021-1.802-.318-.615-.297-1.688-.281-2.73.026-1.52.052-3.244-.912-4.567-.963-1.328-2.62-1.834-4.078-2.281-.99-.297-2.01-.615-2.495-1.094-.484-.485-.796-1.51-1.099-2.495-.442-1.458-.947-3.114-2.276-4.083-1.328-.964-3.052-.938-4.567-.906-1.042.015-2.115.03-2.73-.282-.604-.307-1.213-1.177-1.802-2.02-.875-1.261-1.87-2.683-3.448-3.193-1.546-.5-3.171.057-4.604.547-.99.343-2.015.692-2.708.588-.651-.104-1.495-.74-2.313-1.354C48.063 1.047 46.672 0 45 0c-1.672 0-3.063 1.047-4.292 1.974-.812.615-1.656 1.25-2.307 1.354-.693.11-1.719-.245-2.708-.588-1.433-.49-3.058-1.047-4.6-.547-1.577.51-2.572 1.932-3.447 3.187-.589.844-1.198 1.714-1.802 2.021-.615.313-1.693.297-2.73.281-1.52-.031-3.244-.057-4.567.907-1.328.968-1.834 2.624-2.281 4.083-.297.99-.615 2.01-1.094 2.495-.485.484-1.51.796-2.5 1.099-1.459.442-3.11.948-4.078 2.276-.964 1.328-.938 3.052-.912 4.573.021 1.036.037 2.109-.276 2.729-.307.599-1.182 1.208-2.02 1.797-1.261.88-2.683 1.87-3.193 3.448-.5 1.546.057 3.171.552 4.604.338.99.692 2.01.583 2.708-.104.651-.74 1.495-1.354 2.307C1.047 41.938 0 43.328 0 45c0 1.672 1.047 3.063 1.974 4.292.615.812 1.25 1.656 1.354 2.312l2.776-.437c-.208-1.35-1.062-2.48-1.885-3.568-.693-.922-1.407-1.87-1.407-2.599 0-.73.714-1.677 1.407-2.599.823-1.089 1.672-2.219 1.885-3.568.219-1.385-.25-2.744-.703-4.057-.365-1.063-.745-2.167-.536-2.818.224-.677 1.192-1.354 2.13-2.01 1.125-.787 2.286-1.599 2.911-2.828.636-1.24.615-2.667.589-4.052-.016-1.136-.037-2.302.375-2.865.411-.573 1.536-.916 2.625-1.245 1.318-.406 2.682-.823 3.667-1.802.979-.979 1.395-2.343 1.796-3.661.334-1.089.672-2.214 1.245-2.63.563-.412 1.735-.391 2.865-.37 1.385.02 2.812.047 4.057-.589 1.224-.625 2.037-1.786 2.823-2.916.656-.933 1.333-1.901 2.015-2.125.646-.214 1.75.171 2.813.536 1.318.453 2.672.922 4.063.703 1.343-.208 2.474-1.062 3.567-1.885.917-.693 1.865-1.407 2.594-1.407.73 0 1.677.714 2.599 1.407 1.089.823 2.219 1.672 3.568 1.885 1.38.214 2.744-.25 4.057-.703 1.068-.365 2.167-.75 2.818-.536.677.224 1.359 1.192 2.01 2.125.787 1.125 1.604 2.291 2.828 2.916 1.24.636 2.677.615 4.052.589 1.136-.021 2.308-.042 2.87.37.568.416.911 1.541 1.245 2.63.4 1.318.818 2.682 1.797 3.661.979.98 2.344 1.396 3.666 1.802 1.084.329 2.209.672 2.625 1.245.412.563.391 1.73.37 2.865-.02 1.385-.041 2.812.589 4.052.625 1.229 1.791 2.041 2.916 2.828.933.656 1.901 1.333 2.125 2.01.209.651-.166 1.756-.536 2.818-.453 1.313-.917 2.672-.703 4.057.213 1.35 1.062 2.48 1.885 3.568.693.922 1.406 1.87 1.406 2.599 0 .73-.713 1.677-1.406 2.599-.823 1.089-1.672 2.219-1.885 3.568l2.781.437c.099-.656.734-1.5 1.349-2.312C88.953 48.062 90 46.672 90 45c0-1.672-1.047-3.063-1.974-4.292z" fill="#000"/></g><mask id="mask1_134_141" style="mask-type:luminance" maskUnits="userSpaceOnUse" x="8" y="69" width="75" height="21"><path d="M8 69.333h74.667v20.005H8V69.334z" fill="#fff"/></mask><g mask="url(#mask1_134_141)"><path d="M76.505 71.047c-1.317.4-2.682.818-3.661 1.797-.98.979-1.396 2.344-1.802 3.661-.329 1.089-.672 2.214-1.245 2.625-.563.412-1.74.39-2.865.375-1.385-.02-2.812-.047-4.057.589-1.224.625-2.036 1.786-2.823 2.911-.656.938-1.333 1.907-2.01 2.13-.657.214-1.756-.166-2.818-.536-1.318-.453-2.677-.912-4.063-.703-1.349.213-2.474 1.062-3.562 1.885-.922.693-1.87 1.406-2.599 1.406-.73 0-1.677-.713-2.599-1.406-1.089-.823-2.219-1.672-3.568-1.885-1.38-.209-2.744.25-4.057.703-1.063.364-2.161.75-2.818.536-.677-.224-1.359-1.192-2.01-2.13-.787-1.125-1.599-2.286-2.828-2.911-1.24-.636-2.672-.615-4.052-.589-1.13.016-2.302.037-2.865-.375-.573-.411-.916-1.536-1.245-2.625-.406-1.317-.823-2.682-1.802-3.661-.979-.98-2.343-1.396-3.666-1.802-1.084-.329-2.209-.672-2.625-1.245l-2.271 1.656c.963 1.328 2.62 1.834 4.078 2.281.99.303 2.01.615 2.495 1.1.484.478.796 1.504 1.099 2.494.442 1.459.948 3.11 2.28 4.078 1.324.964 3.048.932 4.569.906 1.036-.01 2.114-.03 2.729.282.599.307 1.208 1.177 1.797 2.02.88 1.261 1.875 2.683 3.448 3.193 1.546.5 3.171-.057 4.604-.552.99-.338 2.015-.703 2.708-.583.651.104 1.495.74 2.307 1.354C41.938 88.953 43.328 90 45 90c1.672 0 3.063-1.047 4.292-1.974.812-.614 1.656-1.25 2.312-1.349.682-.125 1.714.24 2.703.578 1.438.5 3.058 1.058 4.604.552 1.573-.51 2.568-1.932 3.448-3.187.589-.844 1.198-1.714 1.797-2.021.615-.318 1.688-.302 2.73-.281 1.51.026 3.239.052 4.567-.912 1.328-.963 1.834-2.62 2.276-4.078.302-.99.615-2.01 1.1-2.495.484-.484 1.504-.796 2.494-1.099 1.458-.442 3.115-.947 4.078-2.276l-2.27-1.656c-.412.568-1.537.911-2.626 1.245z" fill="#000"/></g><path d="M11.25 64.688v-2.813c0-.776-.63-1.406-1.406-1.406H7.03v2.812h1.407v1.407a1.407 1.407 0 01-2.813 0V56.25a1.407 1.407 0 012.813 0v1.406h2.812V56.25a4.221 4.221 0 00-4.219-4.219 4.221 4.221 0 00-4.218 4.219v8.438a4.221 4.221 0 004.218 4.218 4.221 4.221 0 004.219-4.219zm1.406-12.657v12.657a4.221 4.221 0 004.219 4.218 4.221 4.221 0 004.219-4.219V52.032H18.28v12.657a1.407 1.407 0 01-2.812 0V52.03h-2.813zM22.5 56.25v12.656h2.813v-2.812h2.812v2.812h2.813V56.25a4.221 4.221 0 00-4.22-4.219A4.221 4.221 0 0022.5 56.25zm5.625 0v7.031h-2.813V56.25a1.407 1.407 0 012.813 0zm14.063 0v12.656H45v-2.812h2.813v2.812h2.812V56.25a4.221 4.221 0 00-4.219-4.219 4.221 4.221 0 00-4.218 4.219zm4.218-1.406c.776 0 1.407.63 1.407 1.406v7.031H45V56.25c0-.776.63-1.406 1.406-1.406zm-14.062-1.406v15.468h2.812V64.48l3.12 3.901c.266.334.672.526 1.099.526h1.406v-2.812h-.729l-3.427-4.281a4.925 4.925 0 004.156-4.86 4.928 4.928 0 00-4.922-4.922H33.75c-.776 0-1.406.63-1.406 1.407zm2.812 1.406h.703c1.162 0 2.11.948 2.11 2.11 0 1.16-.948 2.108-2.11 2.108h-.703v-4.218zm22.5 5.354l-2.911-7.281a1.422 1.422 0 00-1.573-.86 1.406 1.406 0 00-1.14 1.38v15.47h2.812V60.74l2.911 7.28a1.41 1.41 0 001.573.86 1.406 1.406 0 001.14-1.38V52.031h-2.812v8.167zm9.844-5.354h2.813V52.03h-8.438v2.813h2.813v14.062H67.5V54.844zm11.25 0V52.03h-5.625c-.776 0-1.406.63-1.406 1.407V67.5c0 .776.63 1.406 1.406 1.406h5.625v-2.812h-4.219v-4.219h4.219v-2.813h-4.219v-4.218h4.219zm1.406-1.406V67.5c0 .776.63 1.406 1.406 1.406h5.626v-2.812h-4.22v-4.219h4.22v-2.813h-4.22v-4.218h4.22V52.03h-5.626c-.775 0-1.406.63-1.406 1.407z" fill="#F35858"/><path d="M80.156 45c0-19.385-15.77-35.156-35.156-35.156C25.615 9.844 9.844 25.614 9.844 45c0 1.417.094 2.896.281 4.39l2.792-.343a33.07 33.07 0 01-.26-4.047c0-17.833 14.51-32.344 32.343-32.344 17.833 0 32.344 14.51 32.344 32.344a33.07 33.07 0 01-.26 4.047l2.786.344A34.63 34.63 0 0080.156 45zM66.469 72.833l-1.719-2.229c-5.708 4.412-12.536 6.74-19.75 6.74s-14.042-2.328-19.75-6.74l-1.719 2.23c6.203 4.791 13.625 7.322 21.469 7.322 7.844 0 15.266-2.531 21.469-7.323z" fill="#000"/><path d="M30.938 29.531h-2.813v2.813h1.406v14.062h2.813V30.938c0-.776-.63-1.407-1.407-1.407zm7.734 0a4.928 4.928 0 00-4.922 4.922v7.031a4.928 4.928 0 004.922 4.922 4.928 4.928 0 004.922-4.922v-7.03a4.928 4.928 0 00-4.922-4.923zm2.11 11.953c0 1.162-.949 2.11-2.11 2.11a2.114 2.114 0 01-2.11-2.11v-7.03c0-1.162.948-2.11 2.11-2.11 1.161 0 2.11.948 2.11 2.11v7.03zm9.14-11.953A4.928 4.928 0 0045 34.453v7.031a4.928 4.928 0 004.922 4.922 4.928 4.928 0 004.922-4.922v-7.03a4.928 4.928 0 00-4.922-4.923zm2.11 11.953c0 1.162-.949 2.11-2.11 2.11a2.114 2.114 0 01-2.11-2.11v-7.03c0-1.162.948-2.11 2.11-2.11 1.161 0 2.11.948 2.11 2.11v7.03zm7.182 2.886l5.624-11.245 2.516 1.255-5.625 11.25-2.515-1.26zm-1.558-9.214h2.813v2.813h-2.813v-2.813zm8.438 5.625h2.812v2.813h-2.812V40.78z" fill="#F35858"/></g><defs><clipPath id="clip0_134_141"><path fill="#fff" d="M0 0h90v90H0z"/></clipPath></defs></svg>