<svg width="90" height="90" fill="none" xmlns="http://www.w3.org/2000/svg"><g clip-path="url(#clip0_135_191)"><path d="M73.568 24.87a12.277 12.277 0 00-.953-4.808 12.335 12.335 0 00-2.73-4.078 12.48 12.48 0 00-1.906-1.562 12.647 12.647 0 00-2.177-1.162 12.328 12.328 0 00-2.36-.713 12.578 12.578 0 00-2.458-.245c-.823 0-1.64.084-2.453.245-.812.161-1.599.396-2.36.713a12.65 12.65 0 00-2.176 1.162 12.49 12.49 0 00-1.906 1.562l-7.568 7.553-7.563-7.553a12.246 12.246 0 00-1.906-1.572 12.506 12.506 0 00-4.542-1.89 12.628 12.628 0 00-2.463-.251 12.564 12.564 0 00-4.823.953c-.766.318-1.495.703-2.182 1.167a12.515 12.515 0 00-3.48 3.474 12.326 12.326 0 00-1.166 2.177 12.891 12.891 0 00-.714 2.364 12.519 12.519 0 00.73 7.271c.317.766.708 1.49 1.171 2.177.464.688.985 1.323 1.573 1.901L44.521 59.09l25.36-25.334a12.354 12.354 0 002.734-4.073 12.51 12.51 0 00.953-4.812zM40.219 7.052l4.302 4.292 5.844-5.839c.27-.286.479-.614.62-.979.145-.37.213-.75.208-1.146a3.07 3.07 0 00-.896-2.104 2.958 2.958 0 00-.964-.646 2.965 2.965 0 00-1.14-.24 2.974 2.974 0 00-1.146.204c-.365.14-.693.349-.984.62L44.52 2.755l-1.547-1.541a3 3 0 00-.984-.62c-.37-.14-.75-.214-1.146-.203a2.965 2.965 0 00-1.14.24c-.365.15-.688.369-.964.645a2.98 2.98 0 00-.651.964 2.967 2.967 0 00-.24 1.14c-.01.396.057.776.203 1.146.14.365.349.693.62.98l1.547 1.546z" fill="#F35858"/><mask id="mask0_135_191" style="mask-type:luminance" maskUnits="userSpaceOnUse" x="74" y="0" width="15" height="12"><path d="M74.667 0H89v12H74.667V0z" fill="#fff"/></mask><g mask="url(#mask0_135_191)"><path d="M77.063 7.052l4.322 4.292 5.844-5.839a3.007 3.007 0 00.89-2.15c0-.407-.077-.792-.234-1.167A3.076 3.076 0 0086.23.547a2.97 2.97 0 00-1.166-.23 3.043 3.043 0 00-2.151.897l-1.527 1.541-1.547-1.541a2.946 2.946 0 00-.984-.62c-.37-.14-.75-.214-1.146-.203a2.965 2.965 0 00-1.14.24c-.365.15-.688.369-.964.645-.281.281-.5.604-.65.964a3.074 3.074 0 00-.036 2.286c.145.365.348.693.619.98l1.525 1.546z" fill="#F35858"/></g><path d="M7.672 11.344l4.302-4.292 1.547-1.547c.27-.286.479-.614.62-.979.146-.37.213-.75.208-1.146a3.072 3.072 0 00-.89-2.104 3.036 3.036 0 00-.97-.646 2.965 2.965 0 00-1.14-.24 3.039 3.039 0 00-2.13.824L7.672 2.755 6.125 1.214a2.947 2.947 0 00-.984-.62A3.002 3.002 0 003.995.39a2.965 2.965 0 00-1.14.24A3.014 3.014 0 001.24 2.24a3.075 3.075 0 00-.036 2.286c.145.365.348.693.619.98l5.849 5.838z" fill="#F35858"/><mask id="mask1_135_191" style="mask-type:luminance" maskUnits="userSpaceOnUse" x="0" y="28" width="44" height="62"><path d="M0 28h44v61.338H0V28z" fill="#fff"/></mask><g mask="url(#mask1_135_191)"><path d="M34.052 55.708l-15.505-9.713c-1.62-1.016-3.714-.735-4.828.614a2.519 2.519 0 00-.14 1.386c.228 1.114.832 1.963 1.806 2.547l12.568 7.875a.91.91 0 01.422.599.921.921 0 01-.12.718.962.962 0 01-.599.427.932.932 0 01-.724-.125l-12.562-7.87a5.758 5.758 0 01-1.755-1.645 5.633 5.633 0 01-.928-2.209 4.44 4.44 0 01.073-1.87l-3.093-12.92a6.65 6.65 0 00-.891-2.084 6.81 6.81 0 00-1.526-1.682 6.897 6.897 0 00-1.995-1.093 6.952 6.952 0 00-2.24-.38 7.236 7.236 0 00-1.53.176.53.53 0 00-.334.224.527.527 0 00-.078.396l5.849 25.48a11.74 11.74 0 001.9 4.244 11.723 11.723 0 003.386 3.177l17.573 11.026a8.89 8.89 0 013.089 3.255c.37.667.65 1.365.838 2.105a9.02 9.02 0 01.282 2.244v8.26c0 .303.104.563.322.777.214.219.474.323.782.323h8.39c.276-.005.516-.1.72-.281a1.06 1.06 0 00.353-.683V75.043c.39-14.094-9.406-19.287-9.505-19.334z" fill="#000"/></g><mask id="mask2_135_191" style="mask-type:luminance" maskUnits="userSpaceOnUse" x="45" y="28" width="44" height="62"><path d="M45.333 28H89v61.338H45.333V28z" fill="#fff"/></mask><g mask="url(#mask2_135_191)"><path d="M88.552 28.458a6.667 6.667 0 00-1.323-.166 6.67 6.67 0 00-1.328.088 6.43 6.43 0 00-1.286.35 6.65 6.65 0 00-1.193.582 6.96 6.96 0 00-1.063.808 6.995 6.995 0 00-1.552 2.146 6.762 6.762 0 00-.437 1.255l-3.094 12.922c.162.62.182 1.24.078 1.87a5.8 5.8 0 01-2.682 3.854l-12.568 7.87a.92.92 0 01-.505.145.91.91 0 01-.583-.187.91.91 0 01-.344-.5.91.91 0 01.026-.61.945.945 0 01.385-.468l12.573-7.875c.98-.584 1.584-1.433 1.813-2.547a2.467 2.467 0 00-.136-1.36 3.605 3.605 0 00-1.041-.817 3.555 3.555 0 00-1.255-.407 3.72 3.72 0 00-2.542.583l-15.427 9.678c-.48.245-9.969 5.333-9.568 19.344v.369l-.02.105v13.38c0 .047.02.088.025.13.031.27.151.5.354.682.204.183.443.281.72.287h8.39c.307 0 .567-.11.781-.323.219-.219.323-.48.323-.781v-8.266c0-.76.094-1.51.281-2.245.188-.74.469-1.437.839-2.104a8.866 8.866 0 013.093-3.255l17.568-11.026a11.738 11.738 0 003.386-3.183 11.68 11.68 0 001.9-4.24l5.84-25.478a.526.526 0 00-.427-.61z" fill="#000"/></g></g><defs><clipPath id="clip0_135_191"><path fill="#fff" d="M0 0h90v90H0z"/></clipPath></defs></svg>