<svg width="90" height="90" fill="none" xmlns="http://www.w3.org/2000/svg"><g clip-path="url(#clip0_134_112)"><mask id="mask0_134_112" style="mask-type:luminance" maskUnits="userSpaceOnUse" x="30" y="0" width="29" height="90"><path d="M30.667 0h28v89.338h-28V0z" fill="#fff"/></mask><g mask="url(#mask0_134_112)"><path d="M58.063 22.448a6.324 6.324 0 00-1.5-4.136v-9.65c0-.573-.058-1.136-.167-1.693a8.69 8.69 0 00-2.375-4.427 8.311 8.311 0 00-1.307-1.078 8.69 8.69 0 00-3.12-1.297A8.757 8.757 0 0047.9 0h-5.802a4.391 4.391 0 00-2.526.818 4.353 4.353 0 00-1.578 2.14 6.466 6.466 0 00-1.823.407 6.4 6.4 0 00-1.63.9c-.5.376-.938.818-1.313 1.324a6.297 6.297 0 00-.885 1.635 6.445 6.445 0 00-.39 1.823 6.54 6.54 0 00.792 3.604 6.385 6.385 0 001.119 1.49l3.4 3.406a6.43 6.43 0 00-3.15 1.568 6.471 6.471 0 00-1.891 2.963 6.504 6.504 0 00-.094 3.516 6.445 6.445 0 001.735 3.062l3.4 3.407a6.431 6.431 0 00-3.15 1.567 6.47 6.47 0 00-1.891 2.964 6.505 6.505 0 00-.094 3.515 6.445 6.445 0 001.735 3.063l3.4 3.406a6.475 6.475 0 00-3.15 1.568 6.47 6.47 0 00-1.891 2.963 6.522 6.522 0 00-.094 3.521 6.453 6.453 0 001.735 3.057l3.4 3.407a6.526 6.526 0 00-2.109.802c-.656.39-1.224.88-1.713 1.469a6.496 6.496 0 00-1.115 1.963 6.474 6.474 0 00-.39 2.224 6.348 6.348 0 001.447 4.073v9.667c0 .567.058 1.13.172 1.687.11.558.276 1.1.49 1.625a8.718 8.718 0 001.88 2.807c.401.401.839.76 1.313 1.073.468.318.968.584 1.494.803a8.482 8.482 0 001.625.494 8.75 8.75 0 001.688.167h5.807c.448 0 .886-.073 1.313-.208a4.353 4.353 0 002.77-2.693 6.515 6.515 0 001.834-.39 6.538 6.538 0 002.974-2.214c.38-.5.682-1.047.9-1.64a6.453 6.453 0 00.402-1.829c.047-.63 0-1.25-.13-1.87a6.577 6.577 0 00-.657-1.75 6.356 6.356 0 00-1.125-1.5l-3.4-3.406a6.466 6.466 0 003.15-1.563 6.487 6.487 0 001.891-2.968 6.502 6.502 0 00.094-3.516 6.445 6.445 0 00-1.735-3.062l-3.4-3.407a6.467 6.467 0 003.15-1.562 6.514 6.514 0 001.891-2.969 6.502 6.502 0 00.094-3.516 6.445 6.445 0 00-1.735-3.062l-3.4-3.406a6.431 6.431 0 003.15-1.568 6.47 6.47 0 001.891-2.964 6.503 6.503 0 00.094-3.515 6.445 6.445 0 00-1.735-3.063l-3.4-3.406a6.524 6.524 0 002.109-.802 6.61 6.61 0 001.713-1.469 6.47 6.47 0 001.115-1.958c.26-.719.39-1.459.39-2.224zM42.099 2.9H47.9a5.805 5.805 0 013.198.974c.312.208.604.448.875.714a5.876 5.876 0 011.245 1.87c.146.348.255.708.328 1.077.073.37.11.745.114 1.125v6.657L43.171 4.833a6.427 6.427 0 00-2.145-1.437c.281-.323.64-.49 1.073-.495zm5.755 84.146h-5.807c-.38 0-.755-.037-1.125-.115a5.6 5.6 0 01-1.078-.328 5.22 5.22 0 01-.995-.531 5.71 5.71 0 01-1.589-1.589 5.879 5.879 0 01-.53-.994 5.592 5.592 0 01-.329-1.078 5.79 5.79 0 01-.11-1.12v-6.657l10.537 10.532a6.513 6.513 0 002.083 1.406 1.395 1.395 0 01-1.057.474zm7.307-6.531c0 .74-.208 1.421-.62 2.041a3.588 3.588 0 01-1.65 1.355 3.624 3.624 0 01-2.125.213 3.6 3.6 0 01-1.886-1.01L35.917 70.15a3.65 3.65 0 01-1.036-2.588c0-.485.098-.948.286-1.391.182-.448.448-.844.791-1.182a3.675 3.675 0 012.573-1.078 3.65 3.65 0 012.589 1.036l12.963 12.964c.724.718 1.084 1.583 1.078 2.604zm0-14.516c0 .74-.208 1.422-.62 2.042a3.62 3.62 0 01-1.65 1.354 3.58 3.58 0 01-2.125.208A3.556 3.556 0 0148.88 68.6l-5.708-5.703-7.255-7.26a3.65 3.65 0 01-1.036-2.588c0-.485.098-.949.286-1.397.182-.443.448-.839.791-1.177.339-.344.735-.61 1.177-.792a3.58 3.58 0 011.396-.286 3.65 3.65 0 012.589 1.036l12.963 12.964c.724.719 1.084 1.583 1.078 2.604zm0-14.52c0 .744-.208 1.426-.62 2.046a3.62 3.62 0 01-1.65 1.354 3.58 3.58 0 01-2.125.209 3.59 3.59 0 01-1.886-1.006l-5.708-5.703-7.255-7.26a3.63 3.63 0 01-1.037-2.589c0-.484.1-.948.281-1.396.188-.442.454-.838.797-1.177a3.623 3.623 0 012.573-1.078 3.65 3.65 0 012.589 1.037L54.083 48.88c.724.719 1.084 1.584 1.078 2.6zm0-14.516a3.62 3.62 0 01-.62 2.046 3.62 3.62 0 01-1.65 1.355 3.581 3.581 0 01-2.125.208 3.59 3.59 0 01-1.886-1.005l-5.708-5.703-7.255-7.26a3.63 3.63 0 01-1.037-2.59c0-.484.1-.947.281-1.395.188-.443.454-.839.797-1.177a3.623 3.623 0 012.573-1.078A3.65 3.65 0 0141.12 21.4l5.708 5.703 7.255 7.26a3.49 3.49 0 011.078 2.6zM51.48 26.13a3.54 3.54 0 01-2.599-1.078L35.917 12.09a3.683 3.683 0 01-.776-1.193 3.668 3.668 0 01-.26-1.396c0-.484.098-.948.28-1.396a3.7 3.7 0 013.37-2.26c.485 0 .948.088 1.396.265a3.63 3.63 0 011.193.776L54.083 19.85c.526.526.86 1.151 1.006 1.88.145.73.078 1.443-.209 2.125a3.633 3.633 0 01-1.354 1.656c-.62.412-1.302.62-2.047.62z" fill="#F35858"/></g><path d="M19.802 36.625a1.413 1.413 0 00-.745-.323 1.416 1.416 0 00-.802.125c-.255.12-.458.297-.61.537a1.37 1.37 0 00-.223.776v2.906h-5.807v2.9h7.255a1.456 1.456 0 001.026-.421 1.459 1.459 0 00.427-1.026v-1.26L25.313 45l-4.99 4.161v-1.26a1.43 1.43 0 00-.427-1.026 1.456 1.456 0 00-1.026-.422h-7.255v2.901h5.807v2.906c0 .282.073.537.224.776.15.24.354.417.61.537.192.094.4.135.614.135.349 0 .661-.11.932-.333l8.709-7.26a1.37 1.37 0 00.385-.5c.094-.193.14-.401.14-.615 0-.214-.046-.422-.14-.615a1.348 1.348 0 00-.386-.5l-8.708-7.26zM71.13 53.708c.214 0 .422-.047.615-.135.255-.12.458-.297.61-.537.15-.24.223-.494.223-.776v-2.906h5.807v-2.9H71.13a1.456 1.456 0 00-1.026.421 1.46 1.46 0 00-.427 1.026v1.26L64.687 45l4.99-4.161v1.26a1.43 1.43 0 00.427 1.026 1.456 1.456 0 001.026.422h7.255v-2.901h-5.807V37.74a1.364 1.364 0 00-.224-.776 1.413 1.413 0 00-.61-.537 1.416 1.416 0 00-.801-.125c-.282.037-.526.14-.745.323l-8.708 7.26a1.348 1.348 0 00-.386.5c-.094.193-.14.401-.14.615 0 .214.046.422.14.615.089.197.219.364.386.5l8.708 7.26c.27.224.583.333.932.333z" fill="#000"/><mask id="mask1_134_112" style="mask-type:luminance" maskUnits="userSpaceOnUse" x="0" y="0" width="24" height="90"><path d="M0 0h24v89.338H0V0z" fill="#fff"/></mask><g mask="url(#mask1_134_112)"><path d="M21.776 81.292H8.708V8.708h13.068c.193 0 .375-.036.552-.109.177-.073.339-.177.474-.313a1.5 1.5 0 00.313-.473c.073-.178.109-.36.109-.553V1.453a1.456 1.456 0 00-.422-1.026 1.38 1.38 0 00-.474-.318A1.43 1.43 0 0021.776 0H1.453c-.193 0-.38.036-.557.11a1.36 1.36 0 00-.469.317A1.36 1.36 0 00.11.896c-.074.177-.11.364-.11.557v87.094a1.434 1.434 0 00.427 1.026c.136.135.292.245.469.318.177.072.364.109.557.109h20.323a1.43 1.43 0 001.026-.427 1.456 1.456 0 00.422-1.026V82.74a1.43 1.43 0 00-.11-.552 1.501 1.501 0 00-.312-.475 1.446 1.446 0 00-.474-.312 1.43 1.43 0 00-.552-.11zm-1.453 5.807H2.9V2.901h17.422v2.906H7.26a1.456 1.456 0 00-1.03.422 1.456 1.456 0 00-.422 1.031v75.48a1.456 1.456 0 00.421 1.03 1.454 1.454 0 001.031.422h13.063V87.1z" fill="#000"/></g><mask id="mask2_134_112" style="mask-type:luminance" maskUnits="userSpaceOnUse" x="66" y="0" width="24" height="90"><path d="M66.667 0h22.671v89.338H66.667V0z" fill="#fff"/></mask><g mask="url(#mask2_134_112)"><path d="M88.547 0H68.224a1.43 1.43 0 00-.552.11 1.381 1.381 0 00-.474.317 1.456 1.456 0 00-.422 1.026V7.26c0 .193.037.375.11.553a1.5 1.5 0 00.312.473c.135.136.297.24.474.313.177.073.36.11.552.11h13.068v72.583H68.224a1.43 1.43 0 00-.552.109 1.446 1.446 0 00-.474.313c-.135.14-.24.296-.313.474a1.43 1.43 0 00-.109.552v5.807a1.456 1.456 0 00.422 1.026 1.46 1.46 0 001.026.427h20.323a1.437 1.437 0 001.026-.427A1.437 1.437 0 0090 88.547V1.453a1.437 1.437 0 00-.427-1.026 1.36 1.36 0 00-.469-.318A1.456 1.456 0 0088.547 0zm-1.448 87.099H69.677v-2.906H82.74a1.454 1.454 0 001.343-.896c.073-.177.11-.365.11-.557V7.26a1.456 1.456 0 00-.422-1.03 1.455 1.455 0 00-1.031-.422H69.677V2.9h17.422v84.198z" fill="#000"/></g></g><defs><clipPath id="clip0_134_112"><path fill="#fff" d="M0 0h90v90H0z"/></clipPath></defs></svg>