<svg width="170" height="50" fill="none" xmlns="http://www.w3.org/2000/svg"><path d="M11.547 26.363c1.448-.031 2.922.052 4.37 0 2.578-.11 6.052.078 7.714-2.317 1.338-1.948 1.234-4.714-.37-6.448-.422-.448-.844-.558-1.396-.818-.396-.188-.552-.448-.182-.818.786-.708 1.552-1.104 1.786-2.234.214-1.057.188-2.557-.208-3.557-.448-1.105-1.292-1.657-2.396-2-.604-.157-1.265-.448-1.896-.448-.63-.026-1.291 0-1.948-.026-1.24-.026-2.526.052-3.791.104-1.104.057-2.448-.26-3.526.083-.657.234-.766 1.287-.13 1.63 1.026.552 2.078-.765 2.947.448.76 1.078.235 2.266.183 3.448-.13 2.604.104 5.24.052 7.844-.026.922.448 2.765-.552 3.344-.396.234-.974.182-1.396.104-.63-.078-.87.026-1.448.291-.156.605-.208.657.344 1.053.578.421 1.156.317 1.843.317zm6.5-10.61c-.765 0-1.817.287-2.526-.16-.817-.5-.713-1.391-.713-2.235.057-.948-.365-2.266.161-3.135.552-.865 1.656-.709 2.526-.709.922 0 2.052-.104 2.87.422.656.474.922 1.344.974 2.104.052.922-.052 2.052-.604 2.818-.61.844-1.714.896-2.688.896zm1.657 8.688c-1.76.417-4.896.813-4.922-1.791 0-.683.052-1.37.026-2.052 0-.526-.156-1.11-.104-1.636.026-.39.13-1.052.474-1.312.37-.292.921-.214 1.343-.214 1.87.24 5.188-.448 5.662 2.11.364 1.948-.344 4.37-2.48 4.895zm12.656 1.422c.662 0 1.37.13 1.974-.057.396-.13.896-.474.896-.948 0-.526-.578-.656-1-.63-.5.052-1.104.291-1.5-.105-.422-.395-.526-.947-.474-1.5.052-.63-.052-1.291-.026-1.947.026-.605.104-1.214.052-1.818 0-.526-.026-1.052.026-1.578.078-1.026.474-2.214 1.266-2.896.817-.714 2.026-.896 3.026-.578.474.156 1.052.448 1.343.87.318.473.026.89.026 1.39 0 .448.13 1.084.579 1.318.395.213.921.052 1.291-.182.844-.636.735-1.818.448-2.714a3.423 3.423 0 00-1.713-2.104 6.377 6.377 0 00-1.683-.63c-.609-.136-1.187-.031-1.791.104a8.838 8.838 0 00-1.63.552c-.5.26-.896.63-1.292 0-.292-.474-.708-.422-1.235-.422-.687-.052-1.343-.104-2.005-.104-.5-.026-1.13-.026-1.448.448-.208.338-.13.786.136 1.104.604.766 1.87-.104 2.396.766.286.474.26 1.13.26 1.682-.026.63-.104 1.292-.052 1.922.104 1.265-.156 2.526-.052 3.791.078.87.37 2.37-.766 2.709-.5.135-1.052-.052-1.552.078-.474.11-.896.474-.63.974.26.531.922.474 1.396.422.312 0 .656.026.974.052.286.057.604-.026.895-.026.63 0 1.26.057 1.865.057zm20.348.157c.76-.079 2.604.286 3.13-.5-.078-1.37-1.474-.292-2.208-.896-.422-.37-.474-1.37-.474-1.896 0-.76.078-1.5.026-2.266-.026-.786-.266-1.526-.24-2.312.026-.714.183-1.396.105-2.136-.105-1.182-.605-2.396-1.657-3-1.974-1.156-5.265-.948-7.083.422-.922.708-1.13 1.714-1 2.844.135.844.974 1.578 1.765.896.922-.844-.208-2.058.579-2.844.395-.396 1.026-.396 1.552-.474.552-.078 1.135-.214 1.713-.13 1.818.234 3.709 3.838 1.183 4.344-1.287.26-2.657.526-3.948.63-1.079.078-2.318.474-2.948 1.422-.76 1.104-1.37 2.234-.974 3.604.291 1.078 1.13 1.843 2.213 2.213 1.157.39 2.526.26 3.735.052.583-.104 1.187-.265 1.687-.578.235-.135.787-.765 1.078-.661.344.104.209.74.396.974.287.422.948.317 1.37.291zm-7.901-1.922c-1.078-1.052-.63-2.818.583-3.526.787-.448 1.76-.636 2.657-.792.473-.104.973-.156 1.473-.235.396-.057.844-.24 1.24-.24 1.156 1.449.234 3.5-1.135 4.475-1.209.87-3.605 1.526-4.818.317zM61.018 10.78c.922.052 1.61-.74 1.661-1.61 0-.838-.448-1.312-1.265-1.473a1.537 1.537 0 00-1.792 1.37c-.078.895.474 1.656 1.396 1.713zm-.365 15.37c.89.026 1.76-.026 2.63-.078.63-.026 1.657.13 2.053-.5a.673.673 0 00-.052-.87c-.209-.209-.527-.209-.818-.209-.39-.025-.865.079-1.208-.078-.318-.109-.5-.421-.605-.713-.265-.709-.078-1.63-.052-2.37 0-.844-.026-1.682-.057-2.552-.026-.844.083-1.682.11-2.526 0-.792-.053-1.578-.079-2.396 0-.448.052-1.187-.37-1.5-.213-.161-.526-.187-.791-.187-.422.026-.844.026-1.26.057-.475 0-.975 0-1.449.026-.291.026-.609.078-.817.286-.422.422-.214 1.188.317 1.422.578.24 1.313-.156 1.839.24.526.39.448 1.286.474 1.838.026.896 0 1.792 0 2.662h-.026c0 .974 0 1.922-.026 2.896 0 .474-.026.974-.026 1.474-.026.396.078.812-.182 1.156-.553.74-1.61.026-2.318.396a.712.712 0 00-.422.818c.104.364.448.473.765.552.422.104.813.052 1.235.078.37 0 .765.078 1.135.078zm12.29.104c.396 0 .838 0 1.26-.052a4.701 4.701 0 002.584-1c.208-.182.312-.104.447.078.053.135.13.266.183.422.13.291.396.396.708.396.688-.026 1.37.052 2.083.078.448.026.891.104 1.339-.026.396-.104.526-.318.557-.818 0-.443-.135-.63-.5-.76-.474-.188-.948-.214-1.448-.214-.448 0-.713-.208-.791-.63-.078-.5-.13-.974-.078-1.474.104-1.104-.027-2.234-.053-3.344-.026-.656-.109-1.312-.026-1.974a15.82 15.82 0 00.026-1.922c-.052-1.052-.24-2.078-.026-3.104 0-.052 0-.104-.026-.156-.109-.818 0-1.662-.057-2.48 0-.26.026-.5 0-.76-.052-.578-.365-.87-.974-.895-.76-.053-1.526.078-2.312.026-.162-.026-.344.052-.526.104-.396.135-.5.291-.474.791 0 .26.26.605.526.683.364.135.734.052 1.104 0 .682-.052 1 .265 1 .922-.026.473.078.947.104 1.421.026.396.078.792-.104 1.188-.182.338-.709.5-1.026.312a3.992 3.992 0 00-.448-.26c-1.37-.578-2.792-.688-4.266-.5-1.234.182-2.26.813-2.844 1.974-.39.786-.63 1.63-.76 2.5-.213 1.078-.187 2.182-.078 3.266.078.974.078 1.922.5 2.838.474 1.084 1.026 2.084 2.104 2.714.708.448 1.5.63 2.292.656zm.87-1.526c-.662 0-1.318-.078-1.87-.5-.422-.313-.766-.656-1.026-1.13-.636-1.052-.844-2.24-.974-3.422-.214-2.052.338-3.896 1.838-5.37.526-.526 1.188-.713 1.922-.713.792 0 1.5.16 2.162.583.182.104.286.286.448.442.63.662.947 1.448 1.052 2.344.052.448.13.87.104 1.11-.052 1.286-.104 2.364-.37 3.422-.208.812-.474 1.604-1.026 2.26-.604.713-1.396 1-2.26.974zM85.44 12.093c.396.078.844-.026 1.266.052.417.052.578-.026 1.026-.052.313-.026.656.052 1 .078.5.057 1.104-.026 1.604.083.526.13 1.266.865.552 1.26-.682.396-1.552-.37-1.843.662-.183.682.24 1.76.448 2.417.291.843.74 1.635 1.026 2.505.24.734.24 1.526.583 2.234.156.344.26.818.443 1.136.187.364.37.208.687-.032.552-.442.76-1.026.922-1.682.182-.948.448-1.844.734-2.766a45.89 45.89 0 01.87-2.395c.157-.474.818-1.63.13-1.974-.526-.26-1.447.317-1.786-.365-.396-.765.526-.922 1.052-.922.844 0 1.708-.026 2.578.026.87.052 1.818-.213 2.662-.104.526.078 1.234.76.63 1.235-.474.343-1.214-.183-1.766.078-.552.265-.838.947-1.026 1.5-.317.921-.656 1.817-1.104 2.687-.74 1.474-1.104 3.052-1.713 4.604-.339.818-.813 1.558-1.157 2.344-.396.896-.708 1.792-1.104 2.661-.526 1.26-1.396 3.105-2.896 3.37-1.552.287-3.343-.317-3.974-1.87-.24-.5-.343-1.447.104-1.895.526-.5 1.26-.052 1.5.5.235.526.053 1.26.63 1.578.579.317 1.475-.156 1.949-.474 1.552-1.026 1.948-2.87 1.104-4.5-.39-.792-.63-1.688-.943-2.526l-1.11-2.792c-.395-.948-.76-1.948-1.182-2.896-.161-.37-.343-.708-.421-1.13-.079-.5-.183-.74-.74-.922-.682-.24-1.922.26-2.313-.526-.474-.974.948-1.24 1.579-1.187zm32.527 14.213c.895.026 1.713-.208 2.474-.604.369-.183.791-.474 1.213-.526.313-.026.526.156.734.396.292.317.584.76 1.053.734.343-.026.687-.287.843-.578.422-.735-.078-1.76 0-2.552.104-1-.026-1.948-.078-2.948 0-.714.052-1.792 1-1.792.448 0 .922.104 1.318-.208.234-.188.344-.552.26-.87-.156-.682-1.156-.474-1.656-.474s-.974-.078-1.448-.104h-1.396c-.87.182-1.734-.156-2.604.208-.37.162-.687.474-.661.922.026.266.161.526.448.63.739.266 1.5-.26 2.265.11.792.364.922 1.286.818 2.078-.083.896-.583 1.708-1.057 2.448-.261.396-.5.765-.865 1.026-.344.24-.74.396-1.135.5-.865.187-1.787 0-2.579-.37-1.578-.734-2.104-2.813-2.291-4.396-.13-.974-.078-1.948-.156-2.896-.053-.526-.131-1.052-.079-1.578.026-.448.131-.922.183-1.37.161-.89.239-1.896.687-2.682.391-.74 1.156-1.318 1.922-1.687 1.448-.709 3.5-.526 4.448.921.396.61.5 1.344.526 2.084.026.63-.026 2.052 1.026 1.786.792-.182.766-1.37.766-2.026 0-1 .13-1.974.26-2.948.078-.578.526-2-.344-2.213-.421-.104-.734.317-1 .61-.26.286-.552.473-.948.395-.5-.11-.947-.396-1.421-.557-.417-.157-.839-.287-1.287-.339-.922-.161-1.87-.052-2.765.234-1.579.474-2.631 1.5-3.292 3-.365.844-.839 1.74-.974 2.636-.13.87-.104 1.786-.182 2.656-.131 1.026 0 2.026.078 3.052.078.922.239 1.844.5 2.74.474 1.656 1.239 3.135 2.765 4 .761.448 1.761.526 2.631.552zm13.919-15.526c.922.052 1.61-.74 1.662-1.61 0-.838-.448-1.312-1.266-1.473a1.538 1.538 0 00-1.792 1.37c-.078.895.474 1.656 1.396 1.713zm-.364 15.37c.89.026 1.76-.026 2.63-.078.63-.026 1.656.13 2.052-.5a.675.675 0 00-.052-.87c-.209-.209-.526-.209-.818-.209-.391-.025-.864.079-1.208-.078-.318-.109-.5-.421-.604-.713-.266-.709-.079-1.63-.052-2.37 0-.844-.027-1.682-.058-2.552-.026-.844.084-1.682.11-2.526 0-.792-.052-1.578-.079-2.396 0-.448.053-1.187-.369-1.5-.214-.161-.526-.187-.792-.187-.422.026-.844.026-1.26.057-.474 0-.974 0-1.448.026-.292.026-.61.078-.818.286-.422.422-.214 1.188.318 1.422.578.24 1.312-.156 1.838.24.526.39.448 1.286.474 1.838.026.896 0 1.792 0 2.662h-.026c0 .974 0 1.922-.026 2.896 0 .474-.026.974-.026 1.474-.026.396.078.812-.182 1.156-.552.74-1.61.026-2.318.396a.712.712 0 00-.422.818c.104.364.448.473.766.552.422.104.812.052 1.234.078.37 0 .766.078 1.136.078zm11.654-.287c.661 0 1.369.13 1.974-.057.395-.13.895-.474.895-.948 0-.526-.578-.656-1-.63-.5.052-1.104.291-1.5-.105-.421-.395-.526-.947-.474-1.5.053-.63-.052-1.291-.026-1.947.026-.605.105-1.214.053-1.818 0-.526-.027-1.052.026-1.578.078-1.026.474-2.214 1.265-2.896.818-.714 2.026-.896 3.026-.578.474.156 1.052.448 1.344.87.318.473.026.89.026 1.39 0 .448.13 1.084.578 1.318.396.213.922.052 1.292-.182.844-.636.734-1.818.448-2.714a3.425 3.425 0 00-1.714-2.104 6.377 6.377 0 00-1.682-.63c-.609-.136-1.188-.031-1.792.104a8.839 8.839 0 00-1.63.552c-.5.26-.896.63-1.292 0-.291-.474-.708-.422-1.234-.422-.688-.052-1.344-.104-2.005-.104-.5-.026-1.13-.026-1.448.448-.208.338-.13.786.135 1.104.604.766 1.87-.104 2.396.766.287.474.261 1.13.261 1.682-.027.63-.105 1.292-.053 1.922.105 1.265-.156 2.526-.052 3.791.078.87.37 2.37-.765 2.709-.5.135-1.052-.052-1.552.078-.474.11-.896.474-.631.974.261.531.922.474 1.396.422.313 0 .657.026.974.052.287.057.604-.026.896-.026.63 0 1.26.057 1.865.057zm12.66.365c1.052.026 2.078 0 3.13 0 .662 0 1.922.135 2.11-.734.13-.662-.292-1.24-1-1.162-.792.084-1.688.136-1.948-.76-.292-.922-.084-1.818-.058-2.766v-3c0-.526.026-1.052 0-1.578-.026-.422-.078-.87-.052-1.292.052-.974 0-1.974 0-2.974h-.026c0-.552-.052-1.13-.052-1.713-.026-.552.052-1.13.026-1.708 0-.292-.052-.579-.338-.714-.396-.182-.948-.078-1.37-.078-.552 0-1.136 0-1.688.026-.448 0-.838.052-1.104.448-.265.37 0 .844.422.922.474.104 1-.078 1.448.13.76.37.734 1.61.734 2.318v3.135c0 2.026-.026 4.052-.052 6.078 0 .526 0 1.026.052 1.552.052.474.052.896-.078 1.37-.26.87-1.422.578-2.104.604-.74.026-1.052 1.026-.578 1.558.286.312.656.312 1.052.286.474-.026.974.026 1.474.052zM43.057 45.391c1.25.563 2.901.875 4.365.875 2.146 0 4.537-.792 4.537-2.818 0-1.864-2.01-2.26-4.636-2.672-1.974-.312-3.51-.526-3.51-1.948 0-1.515 1.713-2.14 3.593-2.14 1.386 0 2.704.312 3.891.838l.25-.672a10.078 10.078 0 00-4.125-.874c-2.224 0-4.349.838-4.349 2.848 0 3.745 8.14 1.72 8.14 4.651 0 1.485-1.958 2.11-3.755 2.11a10.93 10.93 0 01-4.187-.854l-.214.656zm20.064.677v-9.182h4.303v-.709h-9.495v.709h4.432v9.182h.76zm19.456-4.948c0 3.151-1.781 4.438-4.005 4.438-2.23 0-4.005-1.287-4.005-4.438v-4.943h-.745v4.943c0 3.646 2.11 5.146 4.75 5.146 2.635 0 4.745-1.5 4.745-5.146v-4.943h-.74v4.943zm13.057 4.948c2.854 0 5.125-1.453 5.125-4.948s-2.271-4.943-5.125-4.943h-4.698v9.89h4.698zm-3.959-.709v-8.473h3.959c2.442 0 4.401 1.218 4.401 4.234 0 3.02-1.959 4.24-4.401 4.24h-3.959zm17.181.709v-9.89h-.755v9.89h.755zm17.861-4.948c0-3.64-2.338-5.14-5.255-5.14-2.922 0-5.26 1.5-5.26 5.14 0 3.646 2.338 5.146 5.26 5.146 2.917 0 5.255-1.5 5.255-5.146zm-.739 0c0 3.151-2.011 4.438-4.516 4.438-2.51 0-4.521-1.287-4.521-4.438 0-3.146 2.011-4.432 4.521-4.432 2.505 0 4.516 1.286 4.516 4.432z" fill="#fff"/></svg>