<svg xmlns="http://www.w3.org/2000/svg"><defs><symbol id="icon-arrow-right" viewBox="0 0 32 32"><path d="M19.414 24.903l10-7.5c.781-.586.781-1.535 0-2.121l-10-7.5c-.781-.586-2.047-.586-2.828 0s-.781 1.535 0 2.121l6.586 4.939H4c-1.105 0-2 .671-2 1.5s.895 1.5 2 1.5h19.172l-6.586 4.939c-.39.292-.586.676-.586 1.06s.195.768.586 1.061c.781.586 2.047.586 2.828 0z"/></symbol><symbol id="icon-location" viewBox="0 0 32 32" fill="none"><path stroke-linejoin="round" stroke-linecap="round" stroke-width="1.6" d="M19.333 14.001a3.333 3.333 0 10-6.666-.002 3.333 3.333 0 006.666.002z"/><path stroke-linejoin="round" stroke-linecap="round" stroke-width="1.6" d="M15.999 28C14.401 28 6 21.198 6 14.084 6 8.515 10.476 4 15.999 4S26 8.516 26 14.084C26 21.198 17.597 28 15.999 28z"/></symbol><symbol id="icon-calling" viewBox="0 0 32 32" fill="none"><path stroke-linejoin="round" stroke-linecap="round" stroke-width="1.6" d="M19.137 3.333a10.626 10.626 0 019.387 9.376m-9.387-4.652a5.903 5.903 0 014.667 4.667m-9.095 3.906c5.319 5.317 6.525-.834 9.912 2.55 3.265 3.264 5.143 3.918 1.005 8.053-.518.416-3.81 5.426-15.379-6.14C-1.323 9.525 3.683 6.23 4.1 5.712c4.146-4.147 4.79-2.259 8.055 1.005 3.385 3.386-2.764 4.596 2.555 9.913z"/></symbol><symbol id="icon-chevron-left" viewBox="0 0 32 32"><path d="M11.1 14.905L10.005 16l8.759 8.759 2.189-2.189L14.385 16l6.568-6.57-2.189-2.189-7.665 7.665z"/></symbol><symbol id="icon-chevron-right" viewBox="0 0 32 32"><path d="M20.849 17.649l1.131-1.131-9.051-9.051-2.262 2.262 6.787 6.789-6.787 6.789 2.262 2.262 7.92-7.92z"/></symbol><symbol id="icon-facebook" viewBox="0 0 32 32"><path d="M28.25 0H3.75A3.754 3.754 0 000 3.75v24.5A3.754 3.754 0 003.75 32h24.5A3.754 3.754 0 0032 28.25V3.75A3.754 3.754 0 0028.25 0zm1.25 28.25c0 .689-.561 1.25-1.25 1.25h-7.125V19.312h3.862l.638-3.875h-4.5v-2.688c0-1.061.814-1.875 1.875-1.875h2.562V6.999H23a5.75 5.75 0 00-5.749 5.761v2.677H13.5v3.875h3.751V29.5H3.75c-.689 0-1.25-.561-1.25-1.25V3.75c0-.689.561-1.25 1.25-1.25h24.5c.689 0 1.25.561 1.25 1.25v24.5z"/></symbol><symbol id="icon-Instagram" viewBox="0 0 32 32"><path d="M16 2.881c4.275 0 4.781.019 6.462.094 1.563.069 2.406.331 2.969.55a4.952 4.952 0 011.837 1.194 4.926 4.926 0 011.194 1.838c.219.563.481 1.412.55 2.969.075 1.688.094 2.194.094 6.463 0 4.275-.019 4.781-.094 6.462-.069 1.562-.331 2.406-.55 2.969a4.94 4.94 0 01-1.194 1.838 4.934 4.934 0 01-1.837 1.194c-.563.219-1.413.481-2.969.55-1.687.075-2.194.094-6.462.094-4.275 0-4.781-.019-6.462-.094-1.563-.069-2.406-.331-2.969-.55a4.952 4.952 0 01-1.837-1.194 4.918 4.918 0 01-1.194-1.838c-.219-.562-.481-1.412-.55-2.969-.075-1.688-.094-2.194-.094-6.462 0-4.275.019-4.781.094-6.463.069-1.562.331-2.406.55-2.969A4.952 4.952 0 014.732 4.72 4.926 4.926 0 016.57 3.526c.563-.219 1.412-.481 2.969-.55 1.681-.075 2.188-.094 6.462-.094zM16 0c-4.344 0-4.888.019-6.594.094-1.7.075-2.869.35-3.881.744-1.056.412-1.95.956-2.837 1.85a7.833 7.833 0 00-1.85 2.831C.444 6.538.169 7.7.094 9.4.019 11.112 0 11.656 0 16s.019 4.888.094 6.594c.075 1.7.35 2.869.744 3.881.413 1.056.956 1.95 1.85 2.837a7.807 7.807 0 002.831 1.844c1.019.394 2.181.669 3.881.744 1.706.075 2.25.094 6.594.094s4.888-.019 6.594-.094c1.7-.075 2.869-.35 3.881-.744 1.05-.406 1.944-.956 2.831-1.844s1.438-1.781 1.844-2.831c.394-1.019.669-2.181.744-3.881.075-1.706.094-2.25.094-6.594s-.019-4.888-.094-6.594c-.075-1.7-.35-2.869-.744-3.881a7.506 7.506 0 00-1.831-2.844A7.82 7.82 0 0026.482.843C25.463.449 24.301.174 22.601.099c-1.712-.081-2.256-.1-6.6-.1z"/><path d="M16 7.781c-4.538 0-8.219 3.681-8.219 8.219s3.681 8.219 8.219 8.219c4.538 0 8.219-3.681 8.219-8.219S20.538 7.781 16 7.781zm0 13.55a5.332 5.332 0 010-10.662 5.332 5.332 0 010 10.662zM26.462 7.456a1.919 1.919 0 11-3.838 0 1.919 1.919 0 013.838 0z"/></symbol><symbol id="icon-phone" viewBox="0 0 32 32"><path fill="#d11c1c" d="M16 0c8.837 0 16 7.163 16 16s-7.163 16-16 16S0 24.837 0 16 7.163 0 16 0z"/><path fill="#fff" d="M24.044 20.9l-2.601-2.607c-.518-.517-1.376-.501-1.912.036l-1.31 1.313-.259-.144c-.828-.46-1.96-1.089-3.152-2.285-1.195-1.198-1.824-2.335-2.284-3.165-.049-.088-.095-.173-.141-.253l1.312-1.314c.537-.538.552-1.398.035-1.917l-2.601-2.607c-.517-.518-1.375-.502-1.912.036l-.733.739.02.02a4.244 4.244 0 00-.604 1.068 4.423 4.423 0 00-.269 1.083c-.343 2.854.958 5.462 4.489 9.001 4.881 4.892 8.814 4.522 8.984 4.504a4.377 4.377 0 002.146-.876l.016.014.743-.729c.536-.538.551-1.398.035-1.918z"/></symbol><symbol id="icon-arrow-right2" viewBox="0 0 32 32"><path d="M19.414 27.414l10-10a2 2 0 000-2.828l-10-10a2 2 0 10-2.828 2.828L23.172 14H4a2 2 0 100 4h19.172l-6.586 6.586c-.39.39-.586.902-.586 1.414s.195 1.024.586 1.414a2 2 0 002.828 0z"/></symbol></defs></svg>